<svg width="56" height="61" viewBox="0 0 56 61" fill="none" xmlns="http://www.w3.org/2000/svg">
<path fill-rule="evenodd" clip-rule="evenodd" d="M41.6293 11.8727C42.716 12.4576 44.5522 14.5498 45.4002 15.5975C53.9238 26.1288 50.2609 43.3186 38.1401 50.451C35.7045 51.8842 30.6683 54.0939 27.2819 54.2715C22.5796 54.5182 19.6785 51.9002 18.3549 48.6327C17.5324 46.602 17.5819 44.4265 18.3226 42.3644C20.4448 36.4562 24.6438 37.6508 25.4244 34.8712C26.0793 32.5391 24.2711 30.9433 22.0361 31.0705C18.2928 32.1953 15.4788 34.9657 13.8906 37.8049C7.29661 49.593 17.3119 63.5204 31.5548 59.5912C40.3379 57.1682 45.651 53.1378 49.7753 47.8583C59.6779 35.1821 57.7472 15.8142 44.113 6.15339C35.5855 0.111031 25.9252 -1.76494 14.6977 1.79807C12.744 2.41807 10.6236 2.86304 10.0174 4.60754C9.26867 6.76202 10.9651 8.72996 13.0318 8.59021C13.5419 8.55573 17.2856 7.20612 18.6418 6.8599C25.8516 5.01919 31.0444 5.94717 37.3189 8.951C37.7051 9.13587 41.5374 11.3112 41.6293 11.8727V11.8727Z" fill="#282828"/>
<path fill-rule="evenodd" clip-rule="evenodd" d="M37.9234 30.9751C36.9812 36.9826 33.8321 39.458 28.9641 41.3981C27.6227 41.9327 25.1508 42.5256 24.4739 43.3976C23.2832 44.9314 23.6874 46.9096 25.1191 47.858C26.6792 48.8916 28.6609 47.8714 30.1511 47.3265C36.6025 44.9679 41.486 41.2258 43.3014 34.5242C45.7237 25.5817 40.9967 16.9039 32.9655 13.5567C31.1263 12.7901 29.6156 12.6137 27.9348 12.2128C25.3513 12.0055 23.3048 12.0346 20.858 12.5642C19.1104 12.9425 16.5399 13.7764 15.2529 14.5841C12.693 16.1905 14.4925 21.2997 18.4296 19.6305C23.5112 17.4761 29.2576 17.3677 33.2462 20.5139C36.6956 23.2349 38.1355 26.3654 37.9234 30.9751V30.9751Z" fill="#282828"/>
<path fill-rule="evenodd" clip-rule="evenodd" d="M4.99447 10.2402C2.50976 10.8391 0.395789 13.1495 1.11307 16.3319C1.64538 18.6937 4.08673 20.8855 7.1569 20.2162C9.62042 19.6792 11.8174 17.2318 11.0913 14.0767C10.5436 11.6972 8.11798 9.48743 4.99447 10.2402V10.2402Z" fill="#282828"/>
</svg>
