<svg width="57" height="62" viewBox="0 0 57 62" fill="none" xmlns="http://www.w3.org/2000/svg">
<path fill-rule="evenodd" clip-rule="evenodd" d="M41.6436 12.7382C42.7303 13.3231 44.5665 15.4152 45.4145 16.4629C53.9381 26.9942 50.2753 44.1841 38.1544 51.3165C35.7189 52.7496 30.6827 54.9593 27.2963 55.137C22.594 55.3836 19.6928 52.7656 18.3693 49.4982C17.5467 47.4674 17.5963 45.2919 18.337 43.2298C20.4591 37.3216 24.6582 38.5162 25.4388 35.7366C26.0937 33.4045 24.2855 31.8088 22.0505 31.9359C18.3072 33.0608 15.4932 35.8311 13.905 38.6703C7.31096 50.4585 17.3262 64.3858 31.5691 60.4567C40.3523 58.0337 45.6653 54.0032 49.7896 48.7237C59.6923 36.0475 57.7615 16.6797 44.1273 7.01884C35.5999 0.976479 25.9395 -0.899489 14.712 2.66351C12.7583 3.28352 10.638 3.72849 10.0317 5.47299C9.28301 7.62746 10.9795 9.59541 13.0461 9.45566C13.5562 9.42118 17.2999 8.07157 18.6561 7.72535C25.8659 5.88464 31.0587 6.81262 37.3333 9.81644C37.7194 10.0013 41.5517 12.1766 41.6436 12.7382V12.7382Z" fill="#EDF8F8"/>
<path fill-rule="evenodd" clip-rule="evenodd" d="M37.9378 31.8405C36.9956 37.8481 33.8465 40.3234 28.9785 42.2636C27.6371 42.7982 25.1651 43.391 24.4882 44.2631C23.2976 45.7968 23.7018 47.775 25.1335 48.7235C26.6936 49.757 28.6753 48.7368 30.1655 48.192C36.6168 45.8334 41.5004 42.0912 43.3157 35.3896C45.7381 26.4472 41.011 17.7694 32.9799 14.4221C31.1407 13.6555 29.6299 13.4791 27.9491 13.0782C25.3657 12.871 23.3192 12.9 20.8723 13.4297C19.1248 13.8079 16.5543 14.6419 15.2673 15.4495C12.7074 17.0559 14.5068 22.1651 18.444 20.4959C23.5256 18.3415 29.272 18.2332 33.2606 21.3794C36.7099 24.1003 38.1498 27.2308 37.9378 31.8405Z" fill="#EDF8F8"/>
<path fill-rule="evenodd" clip-rule="evenodd" d="M5.00881 11.1057C2.5241 11.7046 0.410133 14.015 1.12741 17.1974C1.65973 19.5591 4.10107 21.751 7.17125 21.0817C9.63476 20.5446 11.8318 18.0973 11.1056 14.9422C10.558 12.5627 8.13232 10.3529 5.00881 11.1057Z" fill="#EDF8F8"/>
</svg>
